<svg width="28" height="29" viewBox="0 0 28 29" fill="none" xmlns="http://www.w3.org/2000/svg">
<path d="M28.0001 20.2906C28.0001 25.258 25.0387 28.2194 20.0713 28.2194H18.4473C17.6967 28.2194 17.0826 27.6053 17.0826 26.8547V18.9805C17.0826 18.612 17.3829 18.2981 17.7513 18.2981L20.1532 18.2572C20.3442 18.2436 20.508 18.1071 20.5489 17.916L21.0265 15.3095C21.0675 15.0639 20.8764 14.8319 20.6171 14.8319L17.7104 14.8728C17.3283 14.8728 17.028 14.5726 17.0144 14.2041L16.9598 10.8606C16.9598 10.6423 17.1372 10.4513 17.3692 10.4513L20.6444 10.3967C20.8764 10.3967 21.0538 10.2193 21.0538 9.98726L20.9993 6.71201C20.9993 6.48001 20.8218 6.30262 20.5899 6.30262L16.9052 6.35722C14.6399 6.39816 12.8385 8.25411 12.8794 10.5195L12.9477 14.2723C12.9613 14.6545 12.6611 14.9547 12.279 14.9683L10.6413 14.9956C10.4093 14.9956 10.232 15.173 10.232 15.405L10.2729 17.9979C10.2729 18.2299 10.4503 18.4073 10.6823 18.4073L12.3199 18.38C12.702 18.38 13.0022 18.6803 13.0159 19.0487L13.1387 26.8274C13.1524 27.5916 12.5382 28.2194 11.774 28.2194H8.63527C3.66783 28.2194 0.706482 25.258 0.706482 20.2769V8.85457C0.706482 3.88713 3.66783 0.925781 8.63527 0.925781H20.0713C25.0387 0.925781 28.0001 3.88713 28.0001 8.85457V20.2906Z" fill="white"/>
</svg>
