<svg width="29" height="29" viewBox="0 0 29 29" fill="none" xmlns="http://www.w3.org/2000/svg">
<path fill-rule="evenodd" clip-rule="evenodd" d="M8.81873 1.00766C10.2744 0.940942 10.7384 0.925781 14.445 0.925781C18.1523 0.925781 18.6156 0.941698 20.0705 1.00766C21.5238 1.07363 22.5163 1.30486 23.3844 1.64224C24.2949 1.98503 25.1196 2.52213 25.8014 3.21617C26.4955 3.8978 27.0327 4.72264 27.3753 5.63317C27.7127 6.50125 27.9432 7.49368 28.0099 8.9463C28.0767 10.402 28.0918 10.866 28.0918 14.5726C28.0918 18.2792 28.0759 18.7432 28.0099 20.1989C27.9439 21.6514 27.7127 22.6439 27.3753 23.512C27.0266 24.4089 26.5595 25.1708 25.8014 25.9289C25.1198 26.6231 24.2949 27.1602 23.3844 27.5029C22.5163 27.8402 21.5238 28.0707 20.0713 28.1375C18.6156 28.2042 18.1516 28.2194 14.445 28.2194C10.7384 28.2194 10.2744 28.2035 8.81873 28.1375C7.36612 28.0715 6.37369 27.8402 5.5056 27.5029C4.6087 27.1542 3.84676 26.6871 3.08861 25.9289C2.39445 25.2473 1.85731 24.4225 1.51467 23.512C1.1773 22.6439 0.946819 21.6514 0.880098 20.1989C0.813378 18.7432 0.798218 18.2799 0.798218 14.5726C0.798218 10.8652 0.814135 10.402 0.880098 8.94707C0.946062 7.49368 1.1773 6.50125 1.51467 5.63317C1.85747 4.7227 2.39457 3.8979 3.08861 3.21617C3.77023 2.52201 4.59506 1.98487 5.5056 1.64224C6.37369 1.30486 7.36612 1.07438 8.81873 1.00766ZM19.9598 3.46408C18.5208 3.39888 18.0887 3.38447 14.445 3.38447C10.8013 3.38447 10.3692 3.39888 8.93019 3.46408C7.59963 3.52474 6.87711 3.74687 6.39643 3.93414C5.75958 4.1813 5.30469 4.47697 4.82705 4.95461C4.35018 5.43225 4.05373 5.88715 3.80658 6.52399C3.61931 7.00467 3.39717 7.72719 3.33652 9.05775C3.27131 10.4967 3.25691 10.9289 3.25691 14.5726C3.25691 18.2163 3.27131 18.6484 3.33652 20.0874C3.39717 21.4179 3.61931 22.1405 3.80658 22.6212C4.0252 23.214 4.37391 23.7502 4.82705 24.1906C5.26734 24.6437 5.80362 24.9924 6.39643 25.211C6.87711 25.3983 7.59963 25.6204 8.93019 25.6811C10.3692 25.7463 10.8006 25.7607 14.445 25.7607C18.0894 25.7607 18.5208 25.7463 19.9598 25.6811C21.2904 25.6204 22.0129 25.3983 22.4936 25.211C23.1304 24.9639 23.5854 24.6682 24.063 24.1906C24.5161 23.7503 24.8648 23.214 25.0834 22.6212C25.2708 22.1405 25.4928 21.4179 25.5535 20.0874C25.6187 18.6484 25.6331 18.2163 25.6331 14.5726C25.6331 10.9289 25.6187 10.4967 25.5535 9.05775C25.4928 7.72719 25.2708 7.00467 25.0834 6.52399C24.8363 5.88715 24.5407 5.43225 24.063 4.95461C23.5854 4.47774 23.1304 4.1813 22.4936 3.93414C22.0129 3.74687 21.2904 3.52474 19.9598 3.46408ZM12.7026 18.7794C13.255 19.0083 13.847 19.126 14.445 19.126C15.6527 19.126 16.8109 18.6463 17.6648 17.7923C18.5188 16.9384 18.9986 15.7802 18.9986 14.5726C18.9986 13.365 18.5188 12.2067 17.6648 11.3528C16.8109 10.4988 15.6527 10.0191 14.445 10.0191C13.847 10.0191 13.255 10.1369 12.7026 10.3657C12.15 10.5945 11.6481 10.9299 11.2252 11.3528C10.8024 11.7756 10.467 12.2776 10.2382 12.83C10.0093 13.3824 9.89157 13.9746 9.89157 14.5726C9.89157 15.1705 10.0093 15.7627 10.2382 16.3151C10.467 16.8676 10.8024 17.3695 11.2252 17.7923C11.6481 18.2151 12.15 18.5506 12.7026 18.7794ZM9.48508 9.6126C10.8005 8.29713 12.5847 7.55811 14.445 7.55811C16.3054 7.55811 18.0896 8.29713 19.405 9.6126C20.7204 10.9281 21.4595 12.7123 21.4595 14.5726C21.4595 16.4329 20.7204 18.217 19.405 19.5326C18.0896 20.848 16.3054 21.587 14.445 21.587C12.5847 21.587 10.8005 20.848 9.48508 19.5326C8.16962 18.217 7.43059 16.4329 7.43059 14.5726C7.43059 12.7123 8.16962 10.9281 9.48508 9.6126ZM23.0148 8.60319C23.3257 8.29223 23.5004 7.8705 23.5004 7.43075C23.5004 6.99098 23.3257 6.56925 23.0148 6.2583C22.7038 5.94735 22.2821 5.77266 21.8423 5.77266C21.4026 5.77266 20.9808 5.94735 20.6699 6.2583C20.3589 6.56925 20.1842 6.99098 20.1842 7.43075C20.1842 7.8705 20.3589 8.29223 20.6699 8.60319C20.9808 8.91414 21.4026 9.08883 21.8423 9.08883C22.2821 9.08883 22.7038 8.91414 23.0148 8.60319Z" fill="white"/>
</svg>
