<svg width="26" height="26" viewBox="0 0 26 26" fill="none" xmlns="http://www.w3.org/2000/svg">
<path d="M12.825 25.65C9.4236 25.65 6.16151 24.2988 3.75636 21.8936C1.3512 19.4885 0 16.2264 0 12.825C0 9.4236 1.3512 6.16151 3.75636 3.75636C6.16151 1.3512 9.4236 0 12.825 0C16.2264 0 19.4885 1.3512 21.8936 3.75636C24.2988 6.16151 25.65 9.4236 25.65 12.825C25.65 16.2264 24.2988 19.4885 21.8936 21.8936C19.4885 24.2988 16.2264 25.65 12.825 25.65ZM12.825 24.0469C15.8012 24.0469 18.6556 22.8646 20.7601 20.7601C22.8646 18.6556 24.0469 15.8012 24.0469 12.825C24.0469 9.84877 22.8646 6.99445 20.7601 4.88994C18.6556 2.78543 15.8012 1.60312 12.825 1.60312C9.84877 1.60312 6.99445 2.78543 4.88994 4.88994C2.78543 6.99445 1.60312 9.84877 1.60312 12.825C1.60312 15.8012 2.78543 18.6556 4.88994 20.7601C6.99445 22.8646 9.84877 24.0469 12.825 24.0469Z" fill="white"/>
<path d="M12.9001 7C12.3134 7 11.8513 7.18847 11.5109 7.56694C11.1764 7.9296 10.9937 8.40663 11.0002 8.89992C11.0002 9.41061 11.1704 9.85443 11.5109 10.2329C11.8513 10.6114 12.3134 10.7998 12.9001 10.7998C13.4868 10.7998 13.9488 10.6114 14.2893 10.2329C14.6298 9.85443 14.8 9.41061 14.8 8.89992C14.8 8.38922 14.6298 7.9454 14.2893 7.56694C13.9488 7.18847 13.4868 7 12.9001 7ZM11.8802 11.9398C11.604 11.9398 11.3802 12.1636 11.3802 12.4398V19.0394C11.3802 19.3156 11.604 19.5394 11.8802 19.5394H13.92C14.1962 19.5394 14.42 19.3156 14.42 19.0394V12.4398C14.42 12.1636 14.1962 11.9398 13.92 11.9398H11.8802Z" fill="white"/>
</svg>
