<svg width="11" height="11" viewBox="0 0 11 11" fill="none" xmlns="http://www.w3.org/2000/svg">
<path d="M10.9915 4.40472C11.0465 4.11649 10.8266 3.77061 10.5519 3.77061L7.41928 3.30944L5.99038 0.31184C5.93542 0.196547 5.88046 0.138901 5.77055 0.0812546C5.49576 -0.091684 5.16602 0.0236085 5.00114 0.31184L3.6272 3.30944L0.494619 3.77061C0.329746 3.77061 0.21983 3.82826 0.164873 3.94355C-0.0549576 4.17414 -0.0549576 4.52001 0.164873 4.7506L2.41813 7.05645L1.86856 10.3423C1.86856 10.4576 1.86856 10.5729 1.92352 10.6882C2.08839 10.9764 2.41813 11.0917 2.69292 10.9187L5.49576 9.3623L8.2986 10.9187C8.35356 10.9764 8.46347 10.9764 8.57339 10.9764H8.6833C8.95809 10.9187 9.17792 10.6305 9.12296 10.2846L8.57339 6.9988L10.8266 4.69295C10.9366 4.63531 10.9915 4.52001 10.9915 4.40472Z" fill="#FFCD19"/>
</svg>
