<svg width="900" height="833" viewBox="0 0 900 833" fill="none" xmlns="http://www.w3.org/2000/svg">
<g clip-path="url(#clip0_275_2)">
<path d="M0 0H900V833H0V0Z" fill="#6A6A6A"/>
<path d="M444.576 53.1702C317.927 53.1702 214.848 156.534 214.848 283.533C214.848 410.533 317.927 513.898 444.576 513.898C571.225 513.898 674.305 410.533 674.305 283.533C674.305 156.534 571.225 53.1702 444.576 53.1702ZM228.029 500.676C164.002 513.749 116.923 570.327 116.929 638.515V833H775.984V638.515C775.99 570.327 728.931 513.747 664.892 500.676C614.109 565.36 534.871 608.305 446.46 608.305C358.05 608.305 280.684 565.359 229.913 500.676C229.315 500.256 228.388 501.096 228.029 500.676Z" fill="#BBBBBB"/>
</g>
<defs>
<clipPath id="clip0_275_2">
<rect width="900" height="833" fill="white"/>
</clipPath>
</defs>
</svg>
