<svg width="358" height="88" viewBox="0 0 358 88" fill="none" xmlns="http://www.w3.org/2000/svg">
<path d="M67.6705 33.625H52.7386C52.4659 31.6932 51.9091 29.9773 51.0682 28.4773C50.2273 26.9545 49.1477 25.6591 47.8295 24.5909C46.5114 23.5227 44.9886 22.7045 43.2614 22.1364C41.5568 21.5682 39.7045 21.2841 37.7045 21.2841C34.0909 21.2841 30.9432 22.1818 28.2614 23.9773C25.5795 25.75 23.5 28.3409 22.0227 31.75C20.5455 35.1364 19.8068 39.25 19.8068 44.0909C19.8068 49.0682 20.5455 53.25 22.0227 56.6364C23.5227 60.0227 25.6136 62.5795 28.2955 64.3068C30.9773 66.0341 34.0795 66.8977 37.6023 66.8977C39.5795 66.8977 41.4091 66.6364 43.0909 66.1136C44.7955 65.5909 46.3068 64.8295 47.625 63.8295C48.9432 62.8068 50.0341 61.5682 50.8977 60.1136C51.7841 58.6591 52.3977 57 52.7386 55.1364L67.6705 55.2045C67.2841 58.4091 66.3182 61.5 64.7727 64.4773C63.25 67.4318 61.1932 70.0795 58.6023 72.4205C56.0341 74.7386 52.9659 76.5795 49.3977 77.9432C45.8523 79.2841 41.8409 79.9545 37.3636 79.9545C31.1364 79.9545 25.5682 78.5455 20.6591 75.7273C15.7727 72.9091 11.9091 68.8295 9.06818 63.4886C6.25 58.1477 4.84091 51.6818 4.84091 44.0909C4.84091 36.4773 6.27273 30 9.13636 24.6591C12 19.3182 15.8864 15.25 20.7955 12.4545C25.7045 9.63636 31.2273 8.22727 37.3636 8.22727C41.4091 8.22727 45.1591 8.79545 48.6136 9.93182C52.0909 11.0682 55.1705 12.7273 57.8523 14.9091C60.5341 17.0682 62.7159 19.7159 64.3977 22.8523C66.1023 25.9886 67.1932 29.5795 67.6705 33.625ZM74.983 79V26.6364H89.5057V79H74.983ZM82.2784 19.8864C80.1193 19.8864 78.267 19.1705 76.7216 17.7386C75.1989 16.2841 74.4375 14.5455 74.4375 12.5227C74.4375 10.5227 75.1989 8.80682 76.7216 7.375C78.267 5.92045 80.1193 5.19318 82.2784 5.19318C84.4375 5.19318 86.2784 5.92045 87.8011 7.375C89.3466 8.80682 90.1193 10.5227 90.1193 12.5227C90.1193 14.5455 89.3466 16.2841 87.8011 17.7386C86.2784 19.1705 84.4375 19.8864 82.2784 19.8864ZM112.662 48.7273V79H98.1392V26.6364H111.98V35.875H112.594C113.753 32.8295 115.696 30.4205 118.423 28.6477C121.151 26.8523 124.457 25.9545 128.344 25.9545C131.98 25.9545 135.151 26.75 137.855 28.3409C140.56 29.9318 142.662 32.2045 144.162 35.1591C145.662 38.0909 146.412 41.5909 146.412 45.6591V79H131.889V48.25C131.912 45.0455 131.094 42.5455 129.435 40.75C127.776 38.9318 125.491 38.0227 122.582 38.0227C120.628 38.0227 118.901 38.4432 117.401 39.2841C115.923 40.125 114.764 41.3523 113.923 42.9659C113.105 44.5568 112.685 46.4773 112.662 48.7273ZM178.722 80.0227C173.335 80.0227 168.699 78.9318 164.812 76.75C160.949 74.5455 157.972 71.4318 155.881 67.4091C153.79 63.3636 152.744 58.5795 152.744 53.0568C152.744 47.6705 153.79 42.9432 155.881 38.875C157.972 34.8068 160.915 31.6364 164.71 29.3636C168.528 27.0909 173.006 25.9545 178.142 25.9545C181.597 25.9545 184.813 26.5114 187.79 27.625C190.79 28.7159 193.403 30.3636 195.631 32.5682C197.881 34.7727 199.631 37.5455 200.881 40.8864C202.131 44.2045 202.756 48.0909 202.756 52.5455V56.5341H158.54V47.5341H189.085C189.085 45.4432 188.631 43.5909 187.722 41.9773C186.813 40.3636 185.551 39.1023 183.938 38.1932C182.347 37.2614 180.494 36.7955 178.381 36.7955C176.176 36.7955 174.222 37.3068 172.517 38.3295C170.835 39.3295 169.517 40.6818 168.562 42.3864C167.608 44.0682 167.119 45.9432 167.097 48.0114V56.5682C167.097 59.1591 167.574 61.3977 168.528 63.2841C169.506 65.1705 170.881 66.625 172.653 67.6477C174.426 68.6705 176.528 69.1818 178.96 69.1818C180.574 69.1818 182.051 68.9545 183.392 68.5C184.733 68.0455 185.881 67.3636 186.835 66.4545C187.79 65.5455 188.517 64.4318 189.017 63.1136L202.449 64C201.767 67.2273 200.369 70.0455 198.256 72.4545C196.165 74.8409 193.46 76.7045 190.142 78.0455C186.847 79.3636 183.04 80.0227 178.722 80.0227Z" fill="white"/>
<path d="M263.182 31C262.432 28.7045 261.443 26.6477 260.216 24.8295C259.011 22.9886 257.568 21.4205 255.886 20.125C254.227 18.8295 252.341 17.8409 250.227 17.1591C248.114 16.4773 245.795 16.1364 243.273 16.1364C239.136 16.1364 235.375 17.2045 231.989 19.3409C228.602 21.4773 225.909 24.625 223.909 28.7841C221.909 32.9432 220.909 38.0455 220.909 44.0909C220.909 50.1364 221.92 55.2386 223.943 59.3977C225.966 63.5568 228.705 66.7045 232.159 68.8409C235.614 70.9773 239.5 72.0455 243.818 72.0455C247.818 72.0455 251.341 71.1932 254.386 69.4886C257.455 67.7614 259.841 65.3295 261.545 62.1932C263.273 59.0341 264.136 55.3182 264.136 51.0455L266.727 51.5909H245.727V44.0909H272.318V51.5909C272.318 57.3409 271.091 62.3409 268.636 66.5909C266.205 70.8409 262.841 74.1364 258.545 76.4773C254.273 78.7955 249.364 79.9545 243.818 79.9545C237.636 79.9545 232.205 78.5 227.523 75.5909C222.864 72.6818 219.227 68.5455 216.614 63.1818C214.023 57.8182 212.727 51.4545 212.727 44.0909C212.727 38.5682 213.466 33.6023 214.943 29.1932C216.443 24.7614 218.557 20.9886 221.284 17.875C224.011 14.7614 227.239 12.375 230.966 10.7159C234.693 9.05682 238.795 8.22727 243.273 8.22727C246.955 8.22727 250.386 8.78409 253.568 9.89772C256.773 10.9886 259.625 12.5455 262.125 14.5682C264.648 16.5682 266.75 18.9659 268.432 21.7614C270.114 24.5341 271.273 27.6136 271.909 31H263.182ZM303.98 80.0909C299.253 80.0909 295.105 78.9659 291.537 76.7159C287.991 74.4659 285.219 71.3182 283.219 67.2727C281.241 63.2273 280.253 58.5 280.253 53.0909C280.253 47.6364 281.241 42.875 283.219 38.8068C285.219 34.7386 287.991 31.5795 291.537 29.3295C295.105 27.0795 299.253 25.9545 303.98 25.9545C308.707 25.9545 312.844 27.0795 316.389 29.3295C319.957 31.5795 322.73 34.7386 324.707 38.8068C326.707 42.875 327.707 47.6364 327.707 53.0909C327.707 58.5 326.707 63.2273 324.707 67.2727C322.73 71.3182 319.957 74.4659 316.389 76.7159C312.844 78.9659 308.707 80.0909 303.98 80.0909ZM303.98 72.8636C307.571 72.8636 310.526 71.9432 312.844 70.1023C315.162 68.2614 316.878 65.8409 317.991 62.8409C319.105 59.8409 319.662 56.5909 319.662 53.0909C319.662 49.5909 319.105 46.3295 317.991 43.3068C316.878 40.2841 315.162 37.8409 312.844 35.9773C310.526 34.1136 307.571 33.1818 303.98 33.1818C300.389 33.1818 297.435 34.1136 295.116 35.9773C292.798 37.8409 291.082 40.2841 289.969 43.3068C288.855 46.3295 288.298 49.5909 288.298 53.0909C288.298 56.5909 288.855 59.8409 289.969 62.8409C291.082 65.8409 292.798 68.2614 295.116 70.1023C297.435 71.9432 300.389 72.8636 303.98 72.8636ZM349.33 9.18182L348.443 58.9205H339L338.114 9.18182H349.33ZM343.739 79.6477C341.852 79.6477 340.239 78.9886 338.898 77.6705C337.557 76.3295 336.898 74.7159 336.92 72.8295C336.898 70.9659 337.557 69.375 338.898 68.0568C340.239 66.7159 341.852 66.0455 343.739 66.0455C345.58 66.0455 347.17 66.7159 348.511 68.0568C349.852 69.375 350.534 70.9659 350.557 72.8295C350.534 74.0795 350.205 75.2273 349.568 76.2727C348.955 77.2955 348.136 78.1136 347.114 78.7273C346.091 79.3409 344.966 79.6477 343.739 79.6477Z" fill="url(#paint0_linear_38_62)"/>
<defs>
<linearGradient id="paint0_linear_38_62" x1="337.93" y1="18.15" x2="273.218" y2="103.913" gradientUnits="userSpaceOnUse">
<stop stop-color="#4200FF"/>
<stop offset="1" stop-color="#AD00FF"/>
</linearGradient>
</defs>
</svg>
